<?xml version="1.0" encoding="utf-8"?>
<!-- Generator: Adobe Illustrator 25.2.3, SVG Export Plug-In . SVG Version: 6.00 Build 0)  -->
<svg version="1.1" id="Capa_1" xmlns="http://www.w3.org/2000/svg" xmlns:xlink="http://www.w3.org/1999/xlink" x="0px" y="0px"
	 viewBox="0 0 311 748" style="enable-background:new 0 0 311 748;" xml:space="preserve">
<style type="text/css">
	.st0{fill:#FFFFFF;}
</style>
<path class="st0" d="M174.7,85.1c-0.7,12.5-9.1,20.6-20.7,19.9c-10.4-0.6-18.7-10.1-17.6-21.5c1.1-10.6,7.9-17.7,21.2-16.9
	C167.5,67.3,175.2,75.7,174.7,85.1z M174.9,145.1c-0.1-11.7-8.8-20.5-20.1-20.3c-10.5,0.2-18.9,9.4-18.7,20.6
	c0.2,10,8.9,18.1,19.5,18.1C165.9,163.3,174.9,154.8,174.9,145.1z M154,8.7c-10.6,0.7-18.5,10.5-17.7,21.9
	c0.7,9.8,10,17.1,20.8,16.6c9.7-0.5,18.2-9.4,17.7-18.7C174,16.2,165.4,8,154,8.7z M155.5,311.3c-34,0-65.9,13.2-89.9,37.2
	c-24,24-37.2,55.9-37.2,89.9v154c0,34,13.2,65.9,37.2,89.9c24,24,55.9,37.2,89.9,37.2c34,0,65.9-13.2,89.9-37.2
	c24-24,37.2-55.9,37.2-89.9v-154c0-34-13.2-65.9-37.2-89.9C221.4,324.6,189.5,311.3,155.5,311.3 M155.5,283
	c85.9,0,155.5,69.6,155.5,155.5v154c0,85.9-69.6,155.5-155.5,155.5h0C69.6,748,0,678.4,0,592.5v-154C0,352.6,69.6,283,155.5,283
	L155.5,283L155.5,283z M179,421.5v-42c0-13-10.5-23.5-23.5-23.5h0c-13,0-23.5,10.5-23.5,23.5v42c0,13,10.5,23.5,23.5,23.5h0
	C168.5,445,179,434.5,179,421.5z M165.5,240.8l58.2-58.2c5.5-5.5,5.5-14.5,0-20c-5.5-5.5-14.5-5.5-20,0l-48.2,48.2l-48.2-48.2
	c-5.5-5.5-14.5-5.5-20,0s-5.5,14.5,0,20l58.2,58.2c2.7,2.7,6.3,4.2,10,4.2S162.9,243.4,165.5,240.8z"/>
</svg>
