<?xml version="1.0" encoding="utf-8"?>
<!-- Generator: Adobe Illustrator 25.2.3, SVG Export Plug-In . SVG Version: 6.00 Build 0)  -->
<svg version="1.1" id="Capa_1" xmlns="http://www.w3.org/2000/svg" xmlns:xlink="http://www.w3.org/1999/xlink" x="0px" y="0px"
	 viewBox="0 0 311 310" style="enable-background:new 0 0 311 310;" xml:space="preserve">
<style type="text/css">
	.st0{fill:#FFFFFF;}
</style>
<path class="st0" d="M201.4,155l-0.2,137.3c-0.2,6.2-2.3,11.8-8.4,14.5c-1.7,0.8-3.3,1.1-4.9,1.2c-1.8-0.1-3.7-0.5-5.6-1.3
	c-0.8-0.3-1.6-0.7-2.3-1.1c-1.2-0.8-2.3-1.7-3.4-2.7c-11.8-11.1-23.3-22.5-34.9-33.8c-0.8-0.8-1.7-1.6-2.5-2.4c0,0-0.1-0.1-0.1-0.1
	c-14.2-13.9-28.3-27.8-42.5-41.7c-3.7-3.6-7.5-7.3-11.2-10.9c-1.9-1.8-5-3.1-7.6-3.2c-2.3-0.1-4.6-0.1-6.9-0.1
	c-9.2-0.1-18.4,0-27.6,0c-2.6,0-5.2,0-7.8,0c-3.1,0-5.7-0.5-7.9-1.5c-0.1-0.1-0.3-0.1-0.4-0.2c-0.1-0.1-0.3-0.1-0.4-0.2
	c-4.3-2.5-6.5-6.8-6.5-13.3c0-13.4,0-26.8,0-40.2h-0.1v-0.5h0.1c0-13.4,0-26.8,0-40.2c0-6.5,2.2-10.8,6.5-13.3
	c0.1-0.1,0.2-0.1,0.3-0.2c2.2-1.2,5-1.7,8.3-1.8c2.6,0,5.2,0,7.8,0c9.2,0,18.4,0.1,27.6-0.1c2.3,0,4.6-0.1,6.9-0.1
	c2.6-0.1,5.8-1.4,7.6-3.2c3.8-3.6,7.5-7.3,11.2-10.9c14.2-13.8,28.4-27.8,42.5-41.7c0,0,0,0,0,0c0.8-0.8,1.7-1.7,2.5-2.5
	c11.6-11.3,23.1-22.7,34.9-33.8c1.1-1,2.3-2,3.5-2.7c0.7-0.4,1.5-0.8,2.3-1.1c1.9-0.8,3.8-1.2,5.6-1.3c1.6,0.1,3.2,0.4,4.9,1.2
	c6.1,2.7,8.2,8.3,8.4,14.5L201.4,155z"/>
</svg>
