<?xml version="1.0" encoding="utf-8"?>
<!-- Generator: Adobe Illustrator 25.2.3, SVG Export Plug-In . SVG Version: 6.00 Build 0)  -->
<svg version="1.1" id="Capa_1" xmlns="http://www.w3.org/2000/svg" xmlns:xlink="http://www.w3.org/1999/xlink" x="0px" y="0px"
	 viewBox="0 0 311 310" style="enable-background:new 0 0 311 310;" xml:space="preserve">
<style type="text/css">
	.st0{fill:#FFFFFF;}
</style>
<path class="st0" d="M103,82.1c13.8-14.5,27.4-29.2,41.4-43.5c10.3-10.6,21.1-20.7,31.8-30.9c1.7-1.6,3.9-2.9,6.1-3.8
	c8.8-3.7,17.1,0.9,18.8,10.3c0.5,3.1,0.6,6.2,0.6,9.4c0,50.9,0.1,101.7-0.1,152.6c0,4,1.2,6.8,4,9.5c32.3,32.2,64.6,64.5,96.8,96.8
	c2.1,2.1,4.2,4.3,5.4,6.9c2.8,5.9,0.8,13-4.3,16.8c-5.4,3.9-12.7,3.4-18.1-1.8c-8.3-8-16.3-16.2-24.4-24.3
	C176.7,195.8,92.5,111.5,8.2,27.4C3.7,22.8,0.5,18,2.5,11.2C5.2,2.3,15.4-1.5,23.1,3.6c1.9,1.2,3.5,2.9,5.1,4.5
	C51.1,31,74.1,53.9,96.9,76.8c1.2,1.2,2.2,2.7,3.3,4.1C101.1,81.3,102,81.7,103,82.1z M20.1,155.3c0,13.6-0.1,27.2,0,40.7
	c0.1,9.9,5.4,15.1,15.2,15.2c14.1,0.1,28.2-0.1,42.3,0.2c2.6,0.1,5.8,1.4,7.6,3.2c18.9,18.2,37.6,36.7,56.4,55.1
	c11.6,11.3,23.1,22.7,34.9,33.8c4.5,4.2,10,6.7,16.2,3.9c6.1-2.7,8.2-8.3,8.4-14.5c0.3-11.5,0.2-23,0.6-34.4
	c0.1-3.9-1.3-6.4-3.9-9.1c-47.2-47.1-94.5-94.1-141.3-141.6c-6.4-6.5-12.8-8.9-21.4-8.2c-9.8,0.8-14.9,5.8-15,15.6
	C20.2,128.5,20.2,141.9,20.1,155.3C20.2,155.3,20.2,155.3,20.1,155.3z"/>
</svg>
